<?xml version="1.0" encoding="UTF-8" standalone="no"?>
<svg width="70px" height="28px" viewBox="0 0 70 28" version="1.1" xmlns="http://www.w3.org/2000/svg" xmlns:xlink="http://www.w3.org/1999/xlink" xmlns:sketch="http://www.bohemiancoding.com/sketch/ns">
    <!-- Generator: Sketch 3.5.1 (25234) - http://www.bohemiancoding.com/sketch -->
    <title>Logo</title>
    <desc>Created with Sketch.</desc>
    <defs></defs>
    <g id="Wireframes" stroke="none" stroke-width="1" fill="none" fill-rule="evenodd" sketch:type="MSPage">
        <g id="Landing-page" sketch:type="MSArtboardGroup" transform="translate(-80.000000, -6.000000)" fill="#333333">
            <g id="Logo" sketch:type="MSLayerGroup" transform="translate(80.000000, 5.000000)">
                <g id="Group" sketch:type="MSShapeGroup">
                    <g id="Clipped" transform="translate(59.343854, 5.406273)">
                        <path d="M0.417304582,12.8156326 L0.417304582,11.5286501 C0.417304582,8.40364741 1.28464339,5.82010556 3.01639329,3.77434117 C4.74741125,1.73078682 6.88684698,0.706799605 9.43177276,0.706799605 C9.67623787,0.706799605 9.91265174,0.720796553 10.1483337,0.737740226 L9.97559785,1.81697855 C9.79627463,1.80592833 9.61841528,1.79266806 9.43250469,1.79266806 C7.28648157,1.79266806 5.50130068,2.58091722 4.07623008,4.15594216 C2.65042754,5.73317715 1.84457098,7.94395818 1.65792845,10.3042856 L1.55033452,12.0767411 L1.55033452,22.9118519 L0.41144913,22.9044851 L0.417304582,12.8156326 L0.417304582,12.8156326 Z" id="Shape"></path>
                    </g>
                    <g id="Clipped" transform="translate(27.994518, 6.015038)">
                        <path d="M0.711519139,22.2935101 L1.79038615,22.2935101 L1.79038615,0.531203351 L1.78672649,0.531203351 L0.711519139,1.6133884 L0.711519139,22.2935101 Z" id="Shape"></path>
                    </g>
                    <g id="Clipped" transform="translate(27.994518, 1.000000)">
                        <path d="M1.79038615,0.17877989 L0.711519139,1.26464835 L0.711519139,4.39775456 L1.79038615,3.3118861 L1.79038615,0.17877989 Z" id="Shape"></path>
                    </g>
                    <g id="Clipped" transform="translate(27.994518, 6.015038)">
                        <path d="M0.711519139,22.2839332 L1.79038615,22.2839332 L1.79038615,0.520889811 L1.78672649,0.520889811 L0.711519139,1.60307486 L0.711519139,22.2839332 Z" id="Shape"></path>
                    </g>
                    <g id="Clipped" transform="translate(0.000000, 5.282895)">
                        <path d="M14.4619188,17.6854491 C14.4619188,16.5325427 13.9722566,15.4827716 12.9936642,14.5390826 C12.0143399,13.5931837 10.3052799,12.8513454 7.86794802,12.3143047 C5.29594078,11.765477 3.43463902,11.0575261 2.28257886,10.1919254 C1.1305187,9.32853474 0.554488622,8.04376229 0.554488622,6.34129145 C0.554488622,4.78615691 1.20663958,3.48149406 2.51240535,2.42877626 C3.81817112,1.37605847 5.57700247,0.849331233 7.78889942,0.849331233 C10.1728003,0.849331233 12.0516684,1.41289254 13.4240399,2.53927848 C14.7956795,3.66566442 15.4485624,5.13387055 15.3812247,6.94389688 L15.3417004,7.06471264 L14.4223945,7.06471264 C14.4223945,5.6443908 13.8251384,4.43475986 12.6335539,3.43508313 C11.4419695,2.43614308 9.82586475,1.93667306 7.78816749,1.93667306 C5.76291307,1.93667306 4.23098047,2.3757352 3.19163776,3.25385949 C2.15229505,4.13272046 1.63189177,5.14860418 1.63189177,6.30151065 C1.63189177,7.44115686 2.07251452,8.41210301 2.95156424,9.21729584 C3.83061395,10.0232253 5.57553861,10.7267561 8.18633822,11.3293616 C10.5965886,11.8936596 12.4264173,12.6612816 13.6721647,13.6322278 C14.9179121,14.6061207 15.5400539,15.9645613 15.5400539,17.7060762 C15.5400539,19.408547 14.8476467,20.7905614 13.4613684,21.848436 C12.0758221,22.9070473 10.2372102,23.4359845 7.94699662,23.4359845 C5.42768845,23.4359845 3.4529373,22.8702132 2.02127932,21.7379338 C0.589621333,20.6027077 -0.0808279073,19.2265867 0.0128593228,17.6058875 L0.0523836231,17.4835984 L0.9328972,17.4835984 C1.04049113,19.1993295 1.77242261,20.4399011 3.13088745,21.2053131 C4.49008422,21.9685151 6.09447803,22.3523261 7.94846049,22.3523261 C9.94590151,22.3523261 11.531997,21.8823234 12.7030874,20.9430545 C13.8756417,20.0059957 14.4619188,18.9201272 14.4619188,17.6854491" id="Shape"></path>
                    </g>
                    <g id="Clipped" transform="translate(38.743522, 5.282895)">
                        <path d="M9.8498262,23.4367212 C7.38541289,23.4367212 5.25695613,22.4363078 3.46518786,20.4303242 C1.67341958,18.4272873 0.776071581,15.935094 0.776071581,12.9581642 L0.776071581,11.6704451 C0.776071581,8.54691572 1.64341039,5.96190051 3.37589222,3.91760948 C5.10544632,1.87405513 7.24415012,0.850067914 9.78907589,0.850067914 C12.2293355,0.850067914 14.2165294,1.65452406 15.7557814,3.26417303 C17.2921055,4.873822 18.0620975,7.03229865 18.0620975,9.74033967 L18.0620975,11.4103965 L1.85640245,11.4103965 L1.85640245,11.6711818 L1.85640245,12.9589009 C1.85640245,15.5866437 2.62200279,17.8099483 4.15466732,19.6266047 C5.68586798,21.4454713 7.58523019,22.3530628 9.8498262,22.3530628 C11.4615393,22.3530628 12.8090252,22.1313217 13.8966754,21.6885761 C14.9813978,21.2443572 15.9116828,20.5813439 16.6838705,19.6980628 L17.2628283,20.5422998 C16.411592,21.4948289 15.375177,22.2153034 14.1557791,22.7051965 C12.9378451,23.1950897 11.5010636,23.4367212 9.8498262,23.4367212 M9.78907589,1.93667306 C7.64451664,1.93667306 5.85933575,2.72344885 4.43353321,4.29994715 C3.00919454,5.87644546 2.20260605,7.84412161 2.01596352,10.2037123 L2.07671383,10.3245281 L16.9832305,10.3245281 L16.9832305,9.66004139 C16.9832305,7.44926036 16.3186367,5.60829341 14.9857894,4.13935059 C13.6529422,2.67040778 11.9211923,1.93667306 9.78907589,1.93667306" id="Shape"></path>
                    </g>
                    <g id="Clipped" transform="translate(34.254153, 0.366071)">
                        <path d="M0.83945066,1.94351449 L0.83945066,27.9328994 L1.91687312,27.9328994 L1.91687312,0.85764603 L0.83945066,1.94351449 Z" id="Shape"></path>
                    </g>
                    <g id="Clipped" transform="translate(18.558638, 1.123378)">
                        <path d="M5.75873835,26.4698521 C5.47840859,26.497846 5.1600184,26.5118429 4.79917617,26.5118429 C3.81253253,26.5118429 3.02058266,26.1317153 2.42039885,25.3758801 C1.82241082,24.6178349 1.52158698,23.3463227 1.52158698,21.562817 L1.52158698,6.51757167 L5.73531654,6.51757167 L6.83760536,5.41181281 L1.52158698,5.41181281 L1.52158698,0.0907626899 L0.423689755,1.19725823 L0.423689755,5.41181281 L0.423689755,6.51757167 L0.423689755,21.562817 C0.423689755,23.6822495 0.798438675,25.2174936 1.5523281,26.1700228 C2.3054856,27.1210785 3.40850635,27.596238 4.86065842,27.596238 C5.31299208,27.596238 5.72067791,27.577821 6.07932434,27.5373035 C6.4387027,27.4960494 6.78490629,27.4245913 7.11866705,27.3155624 L6.91958169,26.3306193 C6.424796,26.398394 6.03833618,26.4440683 5.75873835,26.4698521" id="Shape"></path>
                    </g>
                </g>
            </g>
        </g>
    </g>
</svg>